<svg xmlns="http://www.w3.org/2000/svg" xmlns:xlink="http://www.w3.org/1999/xlink" width="375" viewBox="0 0 375 375" height="375" version="1.0"><defs><g id="c"><path d="M 52.546875 -38.203125 L 52.546875 -24.59375 C 52.546875 -16.300781 50.519531 -9.929688 46.46875 -5.484375 C 42.425781 -1.046875 36.453125 1.171875 28.546875 1.171875 C 20.640625 1.171875 14.660156 -1.046875 10.609375 -5.484375 C 6.554688 -9.929688 4.53125 -16.300781 4.53125 -24.59375 L 4.53125 -77.875 C 4.53125 -86.164062 6.554688 -92.53125 10.609375 -96.96875 C 14.660156 -101.414062 20.640625 -103.640625 28.546875 -103.640625 C 36.453125 -103.640625 42.425781 -101.414062 46.46875 -96.96875 C 50.519531 -92.53125 52.546875 -86.164062 52.546875 -77.875 L 52.546875 -67.921875 L 37.328125 -67.921875 L 37.328125 -78.890625 C 37.328125 -82.597656 36.566406 -85.207031 35.046875 -86.71875 C 33.535156 -88.238281 31.515625 -89 28.984375 -89 C 26.441406 -89 24.414062 -88.238281 22.90625 -86.71875 C 21.394531 -85.207031 20.640625 -82.597656 20.640625 -78.890625 L 20.640625 -23.5625 C 20.640625 -19.851562 21.394531 -17.265625 22.90625 -15.796875 C 24.414062 -14.335938 26.441406 -13.609375 28.984375 -13.609375 C 31.515625 -13.609375 33.535156 -14.335938 35.046875 -15.796875 C 36.566406 -17.265625 37.328125 -19.851562 37.328125 -23.5625 L 37.328125 -38.203125 Z M 52.546875 -38.203125"/></g><g id="d"><path d="M 20.640625 -23.5625 C 20.640625 -19.851562 21.394531 -17.242188 22.90625 -15.734375 C 24.414062 -14.222656 26.441406 -13.46875 28.984375 -13.46875 C 31.515625 -13.46875 33.535156 -14.222656 35.046875 -15.734375 C 36.566406 -17.242188 37.328125 -19.851562 37.328125 -23.5625 L 37.328125 -78.890625 C 37.328125 -82.597656 36.566406 -85.207031 35.046875 -86.71875 C 33.535156 -88.238281 31.515625 -89 28.984375 -89 C 26.441406 -89 24.414062 -88.238281 22.90625 -86.71875 C 21.394531 -85.207031 20.640625 -82.597656 20.640625 -78.890625 Z M 4.53125 -77.875 C 4.53125 -86.164062 6.628906 -92.53125 10.828125 -96.96875 C 15.023438 -101.414062 21.078125 -103.640625 28.984375 -103.640625 C 36.890625 -103.640625 42.9375 -101.414062 47.125 -96.96875 C 51.320312 -92.53125 53.421875 -86.164062 53.421875 -77.875 L 53.421875 -24.59375 C 53.421875 -16.300781 51.320312 -9.929688 47.125 -5.484375 C 42.9375 -1.046875 36.890625 1.171875 28.984375 1.171875 C 21.078125 1.171875 15.023438 -1.046875 10.828125 -5.484375 C 6.628906 -9.929688 4.53125 -16.300781 4.53125 -24.59375 Z M 4.53125 -77.875"/></g><g id="e"><path d="M 5.125 -58.546875 L 34.390625 -58.546875 L 34.390625 -43.90625 L 5.125 -43.90625 Z M 5.125 -58.546875"/></g><g id="f"><path d="M 5.859375 -102.46875 L 21.953125 -102.46875 L 21.953125 -14.640625 L 48.453125 -14.640625 L 48.453125 0 L 5.859375 0 Z M 5.859375 -102.46875"/></g><g id="g"><path d="M 26.9375 -40.84375 L 21.953125 -31.46875 L 21.953125 0 L 5.859375 0 L 5.859375 -102.46875 L 21.953125 -102.46875 L 21.953125 -57.8125 L 43.328125 -102.46875 L 59.140625 -102.46875 L 36.734375 -56.796875 L 59.140625 0 L 42.59375 0 Z M 26.9375 -40.84375"/></g><g id="h"><path d="M 8.34375 0 L 6.96875 0 L 6.96875 -5.0625 L 2.5625 -5.0625 L 2.5625 0 L 1.1875 0 L 1.1875 -10.953125 L 2.5625 -10.953125 L 2.5625 -6.25 L 6.96875 -6.25 L 6.96875 -10.953125 L 8.34375 -10.953125 Z M 8.34375 0"/></g><g id="i"><path d="M 8.3125 -4.515625 C 8.3125 -3.015625 7.988281 -1.859375 7.34375 -1.046875 C 6.707031 -0.242188 5.804688 0.15625 4.640625 0.15625 C 3.503906 0.15625 2.609375 -0.234375 1.953125 -1.015625 C 1.304688 -1.804688 0.96875 -2.921875 0.9375 -4.359375 L 0.9375 -6.421875 C 0.9375 -7.878906 1.257812 -9.023438 1.90625 -9.859375 C 2.550781 -10.691406 3.457031 -11.109375 4.625 -11.109375 C 5.769531 -11.109375 6.664062 -10.707031 7.3125 -9.90625 C 7.957031 -9.113281 8.289062 -7.976562 8.3125 -6.5 Z M 6.921875 -6.4375 C 6.921875 -7.59375 6.734375 -8.453125 6.359375 -9.015625 C 5.984375 -9.578125 5.40625 -9.859375 4.625 -9.859375 C 3.863281 -9.859375 3.285156 -9.570312 2.890625 -9 C 2.503906 -8.425781 2.3125 -7.585938 2.3125 -6.484375 L 2.3125 -4.515625 C 2.3125 -3.398438 2.503906 -2.546875 2.890625 -1.953125 C 3.273438 -1.367188 3.851562 -1.078125 4.625 -1.078125 C 5.40625 -1.078125 5.976562 -1.347656 6.34375 -1.890625 C 6.71875 -2.429688 6.910156 -3.257812 6.921875 -4.375 Z M 6.921875 -6.4375"/></g><g id="j"><path d="M 7.703125 -10.953125 L 7.703125 -3.171875 C 7.703125 -2.128906 7.40625 -1.3125 6.8125 -0.71875 C 6.21875 -0.132812 5.390625 0.15625 4.328125 0.15625 C 3.242188 0.15625 2.414062 -0.128906 1.84375 -0.703125 C 1.28125 -1.285156 0.992188 -2.109375 0.984375 -3.171875 L 0.984375 -10.953125 L 2.34375 -10.953125 L 2.34375 -3.21875 C 2.34375 -2.476562 2.5 -1.925781 2.8125 -1.5625 C 3.125 -1.195312 3.628906 -1.015625 4.328125 -1.015625 C 5.035156 -1.015625 5.546875 -1.195312 5.859375 -1.5625 C 6.171875 -1.925781 6.328125 -2.476562 6.328125 -3.21875 L 6.328125 -10.953125 Z M 7.703125 -10.953125"/></g><g id="k"><path d="M 5.96875 -2.765625 C 5.96875 -3.316406 5.816406 -3.734375 5.515625 -4.015625 C 5.222656 -4.304688 4.691406 -4.585938 3.921875 -4.859375 C 3.148438 -5.140625 2.554688 -5.429688 2.140625 -5.734375 C 1.734375 -6.046875 1.425781 -6.394531 1.21875 -6.78125 C 1.019531 -7.164062 0.921875 -7.609375 0.921875 -8.109375 C 0.921875 -8.984375 1.207031 -9.703125 1.78125 -10.265625 C 2.363281 -10.828125 3.125 -11.109375 4.0625 -11.109375 C 4.707031 -11.109375 5.28125 -10.960938 5.78125 -10.671875 C 6.28125 -10.378906 6.664062 -9.976562 6.9375 -9.46875 C 7.207031 -8.957031 7.34375 -8.394531 7.34375 -7.78125 L 5.96875 -7.78125 C 5.96875 -8.457031 5.800781 -8.984375 5.46875 -9.359375 C 5.144531 -9.734375 4.675781 -9.921875 4.0625 -9.921875 C 3.507812 -9.921875 3.078125 -9.765625 2.765625 -9.453125 C 2.460938 -9.140625 2.3125 -8.703125 2.3125 -8.140625 C 2.3125 -7.679688 2.476562 -7.296875 2.8125 -6.984375 C 3.144531 -6.671875 3.65625 -6.390625 4.34375 -6.140625 C 5.425781 -5.785156 6.195312 -5.347656 6.65625 -4.828125 C 7.125 -4.304688 7.359375 -3.625 7.359375 -2.78125 C 7.359375 -1.894531 7.066406 -1.179688 6.484375 -0.640625 C 5.910156 -0.109375 5.128906 0.15625 4.140625 0.15625 C 3.503906 0.15625 2.914062 0.015625 2.375 -0.265625 C 1.832031 -0.546875 1.40625 -0.9375 1.09375 -1.4375 C 0.789062 -1.945312 0.640625 -2.523438 0.640625 -3.171875 L 2.03125 -3.171875 C 2.03125 -2.492188 2.21875 -1.96875 2.59375 -1.59375 C 2.96875 -1.21875 3.484375 -1.03125 4.140625 -1.03125 C 4.742188 -1.03125 5.195312 -1.1875 5.5 -1.5 C 5.8125 -1.8125 5.96875 -2.234375 5.96875 -2.765625 Z M 5.96875 -2.765625"/></g><g id="l"><path d="M 2.625 0 L 1.234375 0 L 1.234375 -10.953125 L 2.625 -10.953125 Z M 2.625 0"/></g><g id="m"><path d="M 8.328125 0 L 6.953125 0 L 2.5625 -8.4375 L 2.5625 0 L 1.1875 0 L 1.1875 -10.953125 L 2.5625 -10.953125 L 6.96875 -2.46875 L 6.96875 -10.953125 L 8.328125 -10.953125 Z M 8.328125 0"/></g><g id="n"><path d="M 8.03125 -1.359375 L 7.796875 -1.0625 C 7.097656 -0.25 6.082031 0.15625 4.75 0.15625 C 3.570312 0.15625 2.644531 -0.234375 1.96875 -1.015625 C 1.289062 -1.804688 0.945312 -2.921875 0.9375 -4.359375 L 0.9375 -6.5 C 0.9375 -8.039062 1.242188 -9.191406 1.859375 -9.953125 C 2.472656 -10.722656 3.390625 -11.109375 4.609375 -11.109375 C 5.648438 -11.109375 6.460938 -10.816406 7.046875 -10.234375 C 7.640625 -9.648438 7.96875 -8.816406 8.03125 -7.734375 L 6.65625 -7.734375 C 6.601562 -8.421875 6.414062 -8.957031 6.09375 -9.34375 C 5.769531 -9.726562 5.28125 -9.921875 4.625 -9.921875 C 3.832031 -9.921875 3.253906 -9.660156 2.890625 -9.140625 C 2.523438 -8.628906 2.332031 -7.8125 2.3125 -6.6875 L 2.3125 -4.453125 C 2.3125 -3.347656 2.519531 -2.5 2.9375 -1.90625 C 3.363281 -1.3125 3.972656 -1.015625 4.765625 -1.015625 C 5.503906 -1.015625 6.066406 -1.195312 6.453125 -1.5625 L 6.65625 -1.75 L 6.65625 -4.28125 L 4.65625 -4.28125 L 4.65625 -5.453125 L 8.03125 -5.453125 Z M 8.03125 -1.359375"/></g><g id="p"><path d="M 6.28125 -2.859375 L 2.59375 -2.859375 L 1.734375 0 L 0.328125 0 L 3.859375 -10.953125 L 5.03125 -10.953125 L 8.5625 0 L 7.15625 0 Z M 2.953125 -4.046875 L 5.9375 -4.046875 L 4.4375 -9.03125 Z M 2.953125 -4.046875"/></g><g id="q"><path d="M 2.5625 -4.28125 L 2.5625 0 L 1.1875 0 L 1.1875 -10.953125 L 4.671875 -10.953125 C 5.691406 -10.953125 6.488281 -10.644531 7.0625 -10.03125 C 7.644531 -9.425781 7.9375 -8.617188 7.9375 -7.609375 C 7.9375 -6.554688 7.660156 -5.742188 7.109375 -5.171875 C 6.554688 -4.597656 5.773438 -4.300781 4.765625 -4.28125 Z M 2.5625 -5.46875 L 4.671875 -5.46875 C 5.285156 -5.46875 5.753906 -5.648438 6.078125 -6.015625 C 6.398438 -6.378906 6.5625 -6.90625 6.5625 -7.59375 C 6.5625 -8.25 6.394531 -8.773438 6.0625 -9.171875 C 5.726562 -9.566406 5.265625 -9.765625 4.671875 -9.765625 L 2.5625 -9.765625 Z M 2.5625 -5.46875"/></g><clipPath id="a"><path d="M 128.042969 29.640625 L 231 29.640625 L 231 139 L 128.042969 139 Z M 128.042969 29.640625"/></clipPath><clipPath id="b"><path d="M 160 29.640625 L 243.605469 29.640625 L 243.605469 157.914062 L 160 157.914062 Z M 160 29.640625"/></clipPath></defs><path fill="#FFF" d="M-37.5 -37.5H412.5V412.5H-37.5z"/><path fill="#FFF" d="M-37.5 -37.5H412.5V412.5H-37.5z"/><path fill="#FFF" d="M-37.5 -37.5H412.5V412.5H-37.5z"/><g clip-path="url(#a)"><path fill="#455F51" d="M 230.074219 59.882812 L 230.074219 112.046875 L 211.597656 103.507812 L 211.597656 29.777344 Z M 128.042969 100.917969 L 128.042969 138.40625 L 177.402344 130.398438 L 177.402344 87.675781 L 192.234375 94.527344 L 192.234375 63.429688 L 160.125 82.175781 Z M 128.042969 100.917969"/></g><g clip-path="url(#b)"><path d="M 243.605469 118.265625 L 243.605469 147.113281 L 205.921875 153.175781 L 205.921875 134.675781 L 191.40625 128.128906 L 191.117188 127.996094 L 191.117188 155.59375 L 177.421875 157.800781 L 177.421875 87.675781 L 192.25 94.527344 L 192.25 63.429688 L 160.125 82.175781 L 160.125 59.882812 L 211.597656 29.777344 L 211.597656 103.476562 L 230.074219 112.015625 Z M 243.605469 118.265625"/></g><path fill="#FFF" d="M 205.921875 134.675781 L 205.921875 153.175781 L 191.117188 155.566406 L 191.117188 127.972656 L 191.40625 128.105469 Z M 205.921875 134.675781"/><g><use x="-3.521" y="282.122" xmlns:xlink="http://www.w3.org/1999/xlink" xlink:href="#c" xlink:type="simple" xlink:actuate="onLoad" xlink:show="embed"/></g><g><use x="52.976" y="282.122" xmlns:xlink="http://www.w3.org/1999/xlink" xlink:href="#d" xlink:type="simple" xlink:actuate="onLoad" xlink:show="embed"/></g><g><use x="110.937" y="282.122" xmlns:xlink="http://www.w3.org/1999/xlink" xlink:href="#e" xlink:type="simple" xlink:actuate="onLoad" xlink:show="embed"/></g><g><use x="150.456" y="282.122" xmlns:xlink="http://www.w3.org/1999/xlink" xlink:href="#f" xlink:type="simple" xlink:actuate="onLoad" xlink:show="embed"/></g><g><use x="200.366" y="282.122" xmlns:xlink="http://www.w3.org/1999/xlink" xlink:href="#d" xlink:type="simple" xlink:actuate="onLoad" xlink:show="embed"/></g><g><use x="258.327" y="282.122" xmlns:xlink="http://www.w3.org/1999/xlink" xlink:href="#c" xlink:type="simple" xlink:actuate="onLoad" xlink:show="embed"/></g><g><use x="314.824" y="282.122" xmlns:xlink="http://www.w3.org/1999/xlink" xlink:href="#g" xlink:type="simple" xlink:actuate="onLoad" xlink:show="embed"/></g><g fill="#545454"><use x="116.757" y="337.514" xmlns:xlink="http://www.w3.org/1999/xlink" xlink:href="#h" xlink:type="simple" xlink:actuate="onLoad" xlink:show="embed"/></g><g fill="#545454"><use x="131.408" y="337.514" xmlns:xlink="http://www.w3.org/1999/xlink" xlink:href="#i" xlink:type="simple" xlink:actuate="onLoad" xlink:show="embed"/></g><g fill="#545454"><use x="145.758" y="337.514" xmlns:xlink="http://www.w3.org/1999/xlink" xlink:href="#j" xlink:type="simple" xlink:actuate="onLoad" xlink:show="embed"/></g><g fill="#545454"><use x="159.507" y="337.514" xmlns:xlink="http://www.w3.org/1999/xlink" xlink:href="#k" xlink:type="simple" xlink:actuate="onLoad" xlink:show="embed"/></g><g fill="#545454"><use x="172.587" y="337.514" xmlns:xlink="http://www.w3.org/1999/xlink" xlink:href="#l" xlink:type="simple" xlink:actuate="onLoad" xlink:show="embed"/></g><g fill="#545454"><use x="181.537" y="337.514" xmlns:xlink="http://www.w3.org/1999/xlink" xlink:href="#m" xlink:type="simple" xlink:actuate="onLoad" xlink:show="embed"/></g><g fill="#545454"><use x="196.173" y="337.514" xmlns:xlink="http://www.w3.org/1999/xlink" xlink:href="#n" xlink:type="simple" xlink:actuate="onLoad" xlink:show="embed"/></g><g fill="#545454"><use x="210.373" y="337.514" xmlns:xlink="http://www.w3.org/1999/xlink" xlink:href="#o" xlink:type="simple" xlink:actuate="onLoad" xlink:show="embed"/></g><g fill="#545454"><use x="219.001" y="337.514" xmlns:xlink="http://www.w3.org/1999/xlink" xlink:href="#p" xlink:type="simple" xlink:actuate="onLoad" xlink:show="embed"/></g><g fill="#545454"><use x="232.975" y="337.514" xmlns:xlink="http://www.w3.org/1999/xlink" xlink:href="#q" xlink:type="simple" xlink:actuate="onLoad" xlink:show="embed"/></g><g fill="#545454"><use x="246.611" y="337.514" xmlns:xlink="http://www.w3.org/1999/xlink" xlink:href="#q" xlink:type="simple" xlink:actuate="onLoad" xlink:show="embed"/></g></svg>